<svg width="37" height="36" viewBox="0 0 37 36" fill="none" xmlns="http://www.w3.org/2000/svg">
<path d="M15.5 15.75L12.5 19.5L15.5 23.25" stroke="#008F91" stroke-width="3" stroke-linecap="round" stroke-linejoin="round"/>
<path d="M21.5 15.75L24.5 19.5L21.5 23.25" stroke="#008F91" stroke-width="3" stroke-linecap="round" stroke-linejoin="round"/>
<path d="M30.5 30C31.2956 30 32.0587 29.6839 32.6213 29.1213C33.1839 28.5587 33.5 27.7956 33.5 27V12C33.5 11.2044 33.1839 10.4413 32.6213 9.87868C32.0587 9.31607 31.2956 9 30.5 9H18.65C18.1483 9.00492 17.6533 8.88392 17.2105 8.64807C16.7676 8.41222 16.3909 8.06906 16.115 7.65L14.9 5.85C14.6268 5.4352 14.255 5.09472 13.8177 4.85909C13.3805 4.62347 12.8917 4.50008 12.395 4.5H6.5C5.70435 4.5 4.94129 4.81607 4.37868 5.37868C3.81607 5.94129 3.5 6.70435 3.5 7.5V27C3.5 27.7956 3.81607 28.5587 4.37868 29.1213C4.94129 29.6839 5.70435 30 6.5 30H30.5Z" stroke="#008F91" stroke-width="3" stroke-linecap="round" stroke-linejoin="round"/>
</svg>
