<svg width="31" height="31" viewBox="0 0 31 31" fill="none" xmlns="http://www.w3.org/2000/svg">
<path d="M14.2085 21.9584L16.7918 24.5417C17.0463 24.7962 17.3483 24.998 17.6808 25.1357C18.0132 25.2734 18.3695 25.3443 18.7293 25.3443C19.0892 25.3443 19.4455 25.2734 19.7779 25.1357C20.1103 24.998 20.4124 24.7962 20.6668 24.5417C20.9213 24.2873 21.1231 23.9853 21.2608 23.6528C21.3985 23.3204 21.4694 22.9641 21.4694 22.6042C21.4694 22.2444 21.3985 21.8881 21.2608 21.5557C21.1231 21.2232 20.9213 20.9212 20.6668 20.6667" stroke="#008F91" stroke-width="2.58333" stroke-linecap="round" stroke-linejoin="round"/>
<path d="M18.0836 18.0833L21.3128 21.3124C21.8267 21.8263 22.5236 22.115 23.2503 22.115C23.977 22.115 24.6739 21.8263 25.1878 21.3124C25.7017 20.7986 25.9903 20.1016 25.9903 19.3749C25.9903 18.6482 25.7017 17.9513 25.1878 17.4374L20.1761 12.4258C19.4496 11.7001 18.4647 11.2925 17.4378 11.2925C16.4109 11.2925 15.426 11.7001 14.6995 12.4258L13.5628 13.5624C13.0489 14.0763 12.352 14.365 11.6253 14.365C10.8986 14.365 10.2016 14.0763 9.68779 13.5624C9.17394 13.0486 8.88525 12.3516 8.88525 11.6249C8.88525 10.8982 9.17394 10.2013 9.68779 9.68742L13.3174 6.05783C14.4957 4.8826 16.0323 4.13396 17.684 3.93042C19.3358 3.72688 21.0082 4.08007 22.4365 4.93408L23.0436 5.29575C23.5936 5.62769 24.2475 5.74282 24.8778 5.61867L27.1253 5.16658" stroke="#008F91" stroke-width="2.58333" stroke-linecap="round" stroke-linejoin="round"/>
<path d="M27.1252 3.875L28.4168 18.0833H25.8335" stroke="#008F91" stroke-width="2.58333" stroke-linecap="round" stroke-linejoin="round"/>
<path d="M3.87516 3.875L2.5835 18.0833L10.9793 26.4792C11.4932 26.993 12.1901 27.2817 12.9168 27.2817C13.6435 27.2817 14.3405 26.993 14.8543 26.4792C15.3682 25.9653 15.6569 25.2684 15.6569 24.5417C15.6569 23.815 15.3682 23.118 14.8543 22.6042" stroke="#008F91" stroke-width="2.58333" stroke-linecap="round" stroke-linejoin="round"/>
<path d="M3.875 5.16675H14.2083" stroke="#008F91" stroke-width="2.58333" stroke-linecap="round" stroke-linejoin="round"/>
</svg>
