<svg width="33" height="33" viewBox="0 0 33 33" fill="none" xmlns="http://www.w3.org/2000/svg">
<path d="M20.625 2.75H12.375C11.6156 2.75 11 3.36561 11 4.125V6.875C11 7.63439 11.6156 8.25 12.375 8.25H20.625C21.3844 8.25 22 7.63439 22 6.875V4.125C22 3.36561 21.3844 2.75 20.625 2.75Z" stroke="#008F91" stroke-width="2.75" stroke-linecap="round" stroke-linejoin="round"/>
<path d="M22 5.5H24.75C25.4793 5.5 26.1788 5.78973 26.6945 6.30546C27.2103 6.82118 27.5 7.52065 27.5 8.25V27.5C27.5 28.2293 27.2103 28.9288 26.6945 29.4445C26.1788 29.9603 25.4793 30.25 24.75 30.25H8.25C7.52065 30.25 6.82118 29.9603 6.30546 29.4445C5.78973 28.9288 5.5 28.2293 5.5 27.5V8.25C5.5 7.52065 5.78973 6.82118 6.30546 6.30546C6.82118 5.78973 7.52065 5.5 8.25 5.5H11" stroke="#008F91" stroke-width="2.75" stroke-linecap="round" stroke-linejoin="round"/>
<path d="M12.375 19.25L15.125 22L20.625 16.5" stroke="#008F91" stroke-width="2.75" stroke-linecap="round" stroke-linejoin="round"/>
</svg>
