<svg width="31" height="31" viewBox="0 0 31 31" fill="none" xmlns="http://www.w3.org/2000/svg">
<path d="M23.2501 5.16675H7.75008C6.32335 5.16675 5.16675 6.32335 5.16675 7.75008V23.2501C5.16675 24.6768 6.32335 25.8334 7.75008 25.8334H23.2501C24.6768 25.8334 25.8334 24.6768 25.8334 23.2501V7.75008C25.8334 6.32335 24.6768 5.16675 23.2501 5.16675Z" stroke="#008F91" stroke-width="2.58333" stroke-linecap="round" stroke-linejoin="round"/>
<path d="M18.0833 11.625H12.9167C12.2033 11.625 11.625 12.2033 11.625 12.9167V18.0833C11.625 18.7967 12.2033 19.375 12.9167 19.375H18.0833C18.7967 19.375 19.375 18.7967 19.375 18.0833V12.9167C19.375 12.2033 18.7967 11.625 18.0833 11.625Z" stroke="#008F91" stroke-width="2.58333" stroke-linecap="round" stroke-linejoin="round"/>
<path d="M19.375 2.58325V5.16659" stroke="#008F91" stroke-width="2.58333" stroke-linecap="round" stroke-linejoin="round"/>
<path d="M19.375 25.8333V28.4166" stroke="#008F91" stroke-width="2.58333" stroke-linecap="round" stroke-linejoin="round"/>
<path d="M2.58325 19.375H5.16659" stroke="#008F91" stroke-width="2.58333" stroke-linecap="round" stroke-linejoin="round"/>
<path d="M2.58325 11.625H5.16659" stroke="#008F91" stroke-width="2.58333" stroke-linecap="round" stroke-linejoin="round"/>
<path d="M25.8333 19.375H28.4166" stroke="#008F91" stroke-width="2.58333" stroke-linecap="round" stroke-linejoin="round"/>
<path d="M25.8333 11.625H28.4166" stroke="#008F91" stroke-width="2.58333" stroke-linecap="round" stroke-linejoin="round"/>
<path d="M11.625 2.58325V5.16659" stroke="#008F91" stroke-width="2.58333" stroke-linecap="round" stroke-linejoin="round"/>
<path d="M11.625 25.8333V28.4166" stroke="#008F91" stroke-width="2.58333" stroke-linecap="round" stroke-linejoin="round"/>
</svg>
