<svg width="31" height="31" viewBox="0 0 31 31" fill="none" xmlns="http://www.w3.org/2000/svg">
<path d="M15.5 21.9583V27.1249" stroke="#008F91" stroke-width="2.58333" stroke-linecap="round" stroke-linejoin="round"/>
<path d="M19.6332 6.32917L18.4707 5.8125" stroke="#008F91" stroke-width="2.58333" stroke-linecap="round" stroke-linejoin="round"/>
<path d="M19.6332 9.1709L18.4707 9.68757" stroke="#008F91" stroke-width="2.58333" stroke-linecap="round" stroke-linejoin="round"/>
<path d="M21.8292 4.13345L21.3125 2.97095" stroke="#008F91" stroke-width="2.58333" stroke-linecap="round" stroke-linejoin="round"/>
<path d="M21.8292 11.3667L21.3125 12.5292" stroke="#008F91" stroke-width="2.58333" stroke-linecap="round" stroke-linejoin="round"/>
<path d="M25.1876 2.97095L24.6709 4.13345" stroke="#008F91" stroke-width="2.58333" stroke-linecap="round" stroke-linejoin="round"/>
<path d="M25.1876 12.5292L24.6709 11.3667" stroke="#008F91" stroke-width="2.58333" stroke-linecap="round" stroke-linejoin="round"/>
<path d="M28.0287 5.8125L26.8662 6.32917" stroke="#008F91" stroke-width="2.58333" stroke-linecap="round" stroke-linejoin="round"/>
<path d="M28.0287 9.68757L26.8662 9.1709" stroke="#008F91" stroke-width="2.58333" stroke-linecap="round" stroke-linejoin="round"/>
<path d="M28.4168 16.7917V19.375C28.4168 20.0601 28.1447 20.7172 27.6602 21.2017C27.1757 21.6862 26.5186 21.9583 25.8335 21.9583H5.16683C4.48169 21.9583 3.82461 21.6862 3.34014 21.2017C2.85567 20.7172 2.5835 20.0601 2.5835 19.375V6.45833C2.5835 5.77319 2.85567 5.11611 3.34014 4.63164C3.82461 4.14717 4.48169 3.875 5.16683 3.875H14.2085" stroke="#008F91" stroke-width="2.58333" stroke-linecap="round" stroke-linejoin="round"/>
<path d="M10.3335 27.125H20.6668" stroke="#008F91" stroke-width="2.58333" stroke-linecap="round" stroke-linejoin="round"/>
<path d="M23.25 11.625C25.3901 11.625 27.125 9.8901 27.125 7.75C27.125 5.6099 25.3901 3.875 23.25 3.875C21.1099 3.875 19.375 5.6099 19.375 7.75C19.375 9.8901 21.1099 11.625 23.25 11.625Z" stroke="#008F91" stroke-width="2.58333" stroke-linecap="round" stroke-linejoin="round"/>
</svg>
