<svg width="31" height="31" viewBox="0 0 31 31" fill="none" xmlns="http://www.w3.org/2000/svg">
<path d="M23.2502 27.1251C23.2502 24.3845 22.1615 21.7562 20.2236 19.8183C18.2857 17.8804 15.6574 16.7917 12.9168 16.7917C10.1763 16.7917 7.54794 17.8804 5.61006 19.8183C3.67218 21.7562 2.5835 24.3845 2.5835 27.1251" stroke="#008F91" stroke-width="2.58333" stroke-linecap="round" stroke-linejoin="round"/>
<path d="M12.9168 16.7917C16.4837 16.7917 19.3752 13.9002 19.3752 10.3333C19.3752 6.76649 16.4837 3.875 12.9168 3.875C9.34999 3.875 6.4585 6.76649 6.4585 10.3333C6.4585 13.9002 9.34999 16.7917 12.9168 16.7917Z" stroke="#008F91" stroke-width="2.58333" stroke-linecap="round" stroke-linejoin="round"/>
<path d="M28.4164 25.8332C28.4164 21.4803 25.833 17.4374 23.2497 15.4999C24.0989 14.8628 24.7779 14.0262 25.2267 13.0641C25.6755 12.1021 25.8802 11.0442 25.8227 9.98421C25.7653 8.92418 25.4474 7.89466 24.8972 6.98677C24.347 6.07887 23.5815 5.3206 22.6685 4.77905" stroke="#008F91" stroke-width="2.58333" stroke-linecap="round" stroke-linejoin="round"/>
</svg>
