<svg width="26" height="25" viewBox="0 0 26 25" fill="none" xmlns="http://www.w3.org/2000/svg">
<path d="M18.2393 5.57842C17.9968 5.57842 17.7597 5.65032 17.5581 5.78504C17.3564 5.91975 17.1992 6.11123 17.1064 6.33525C17.0136 6.55927 16.9893 6.80578 17.0366 7.0436C17.0839 7.28142 17.2007 7.49987 17.3722 7.67133C17.5437 7.84279 17.7622 7.95955 18.0001 8.00686C18.238 8.05416 18.4845 8.02988 18.7086 7.93709C18.9327 7.8443 19.1242 7.68716 19.2589 7.48555C19.3937 7.28393 19.4656 7.0469 19.4656 6.80442C19.4656 6.47926 19.3364 6.16742 19.1064 5.93751C18.8764 5.70759 18.5645 5.57842 18.2393 5.57842ZM22.94 8.05085C22.9201 7.20317 22.7613 6.36449 22.4699 5.5682C22.2101 4.88689 21.8057 4.26995 21.2845 3.75985C20.7785 3.23618 20.16 2.83441 19.4758 2.58494C18.6814 2.28473 17.8417 2.12234 16.9926 2.10476C15.9094 2.04346 15.562 2.04346 12.7825 2.04346C10.003 2.04346 9.65555 2.04346 8.57236 2.10476C7.72334 2.12234 6.88355 2.28473 6.0892 2.58494C5.40625 2.83693 4.78828 3.23836 4.28048 3.75985C3.75669 4.26576 3.35483 4.88414 3.10532 5.5682C2.80505 6.36239 2.64262 7.202 2.62503 8.05085C2.56372 9.13381 2.56372 9.48118 2.56372 12.2601C2.56372 15.039 2.56372 15.3864 2.62503 16.4694C2.64262 17.3182 2.80505 18.1578 3.10532 18.952C3.35483 19.6361 3.75669 20.2545 4.28048 20.7604C4.78828 21.2819 5.40625 21.6833 6.0892 21.9353C6.88355 22.2355 7.72334 22.3979 8.57236 22.4155C9.65555 22.4768 10.003 22.4768 12.7825 22.4768C15.562 22.4768 15.9094 22.4768 16.9926 22.4155C17.8417 22.3979 18.6814 22.2355 19.4758 21.9353C20.16 21.6858 20.7785 21.284 21.2845 20.7604C21.808 20.2522 22.2127 19.6347 22.4699 18.952C22.7613 18.1557 22.9201 17.317 22.94 16.4694C22.94 15.3864 23.0013 15.039 23.0013 12.2601C23.0013 9.48118 23.0013 9.13381 22.94 8.05085ZM21.1006 16.3468C21.0931 16.9953 20.9757 17.6379 20.7531 18.2471C20.59 18.6917 20.3279 19.0934 19.9867 19.422C19.6553 19.7596 19.2543 20.0211 18.8116 20.1882C18.2022 20.4107 17.5595 20.5282 16.9109 20.5356C15.889 20.5867 15.5109 20.5969 12.8234 20.5969C10.1358 20.5969 9.75774 20.5969 8.73586 20.5356C8.06233 20.5482 7.39168 20.4445 6.75342 20.2291C6.33014 20.0534 5.94752 19.7926 5.62935 19.4628C5.29018 19.1346 5.0314 18.7326 4.87316 18.2879C4.62368 17.67 4.4853 17.0128 4.46441 16.3468C4.46441 15.3251 4.4031 14.9471 4.4031 12.2601C4.4031 9.57313 4.4031 9.19511 4.46441 8.17345C4.46899 7.51044 4.59005 6.8534 4.82207 6.23228C5.00197 5.80105 5.2781 5.41665 5.62935 5.10845C5.93981 4.75717 6.3235 4.47818 6.75342 4.29112C7.37631 4.0664 8.03281 3.94894 8.69499 3.94375C9.71687 3.94375 10.095 3.88245 12.7825 3.88245C15.47 3.88245 15.8481 3.88245 16.87 3.94375C17.5187 3.95119 18.1614 4.06865 18.7707 4.29112C19.2351 4.46343 19.6519 4.74356 19.9867 5.10845C20.3216 5.42229 20.5833 5.80598 20.7531 6.23228C20.9803 6.85441 21.0978 7.51118 21.1006 8.17345C21.1517 9.19511 21.1619 9.57313 21.1619 12.2601C21.1619 14.9471 21.1517 15.3251 21.1006 16.3468ZM12.7825 7.01897C11.7461 7.02099 10.7336 7.33009 9.87286 7.90722C9.01212 8.48435 8.3418 9.30361 7.9466 10.2615C7.55139 11.2193 7.44904 12.2728 7.65246 13.2889C7.85589 14.3049 8.35597 15.2378 9.08951 15.9698C9.82305 16.7017 10.7571 17.1999 11.7738 17.4013C12.7904 17.6027 13.8439 17.4983 14.8012 17.1013C15.7585 16.7043 16.5766 16.0325 17.1522 15.1709C17.7278 14.3092 18.0349 13.2963 18.0349 12.2601C18.0363 11.5706 17.9013 10.8876 17.6377 10.2504C17.3741 9.61329 16.9871 9.03452 16.4989 8.54743C16.0108 8.06034 15.4312 7.67455 14.7933 7.41224C14.1555 7.14992 13.4722 7.01627 12.7825 7.01897ZM12.7825 15.6623C12.1095 15.6623 11.4516 15.4627 10.892 15.0889C10.3324 14.7151 9.89623 14.1837 9.63867 13.5621C9.38112 12.9404 9.31373 12.2563 9.44503 11.5964C9.57633 10.9364 9.90042 10.3302 10.3763 9.85443C10.8522 9.37863 11.4585 9.05461 12.1186 8.92334C12.7787 8.79206 13.4629 8.85944 14.0847 9.11694C14.7065 9.37444 15.238 9.8105 15.6119 10.37C15.9858 10.9295 16.1854 11.5872 16.1854 12.2601C16.1854 12.7069 16.0973 13.1493 15.9263 13.5621C15.7553 13.9748 15.5047 14.3499 15.1887 14.6658C14.8727 14.9817 14.4976 15.2323 14.0847 15.4033C13.6719 15.5743 13.2294 15.6623 12.7825 15.6623Z" fill="#008F91"/>
</svg>
