<svg width="64" height="64" viewBox="0 0 64 64" fill="none" xmlns="http://www.w3.org/2000/svg">
<path d="M10.6667 48C9.91112 48 9.27823 47.744 8.76801 47.232C8.25779 46.72 8.00179 46.0871 8.00001 45.3333C7.99823 44.5796 8.25423 43.9467 8.76801 43.4347C9.28179 42.9227 9.91468 42.6667 10.6667 42.6667H53.3333C54.0889 42.6667 54.7227 42.9227 55.2347 43.4347C55.7467 43.9467 56.0018 44.5796 56 45.3333C55.9982 46.0871 55.7422 46.7209 55.232 47.2347C54.7218 47.7484 54.0889 48.0036 53.3333 48H10.6667ZM10.6667 34.6667C9.91112 34.6667 9.27823 34.4107 8.76801 33.8987C8.25779 33.3867 8.00179 32.7538 8.00001 32C7.99823 31.2462 8.25423 30.6133 8.76801 30.1013C9.28179 29.5893 9.91468 29.3333 10.6667 29.3333H53.3333C54.0889 29.3333 54.7227 29.5893 55.2347 30.1013C55.7467 30.6133 56.0018 31.2462 56 32C55.9982 32.7538 55.7422 33.3876 55.232 33.9013C54.7218 34.4151 54.0889 34.6702 53.3333 34.6667H10.6667ZM10.6667 21.3333C9.91112 21.3333 9.27823 21.0773 8.76801 20.5653C8.25779 20.0533 8.00179 19.4204 8.00001 18.6667C7.99823 17.9129 8.25423 17.28 8.76801 16.768C9.28179 16.256 9.91468 16 10.6667 16H53.3333C54.0889 16 54.7227 16.256 55.2347 16.768C55.7467 17.28 56.0018 17.9129 56 18.6667C55.9982 19.4204 55.7422 20.0542 55.232 20.568C54.7218 21.0818 54.0889 21.3369 53.3333 21.3333H10.6667Z" fill="#008F91"/>
</svg>
