<svg width="25" height="25" viewBox="0 0 25 25" fill="none" xmlns="http://www.w3.org/2000/svg">
<path d="M22.4766 5.92548C21.7087 6.25864 20.8966 6.47888 20.0655 6.57934C20.9423 6.05556 21.5993 5.23154 21.9147 4.26016C21.0908 4.75063 20.1889 5.09619 19.2482 5.28183C18.6194 4.59994 17.7821 4.14604 16.8675 3.99131C15.9529 3.83659 15.0129 3.98979 14.1948 4.42689C13.3767 4.86399 12.7268 5.56026 12.3471 6.40651C11.9673 7.25277 11.8792 8.20112 12.0965 9.10286C10.4306 9.0186 8.80108 8.58483 7.31375 7.82972C5.82643 7.07462 4.51459 6.01507 3.46345 4.71991C3.09477 5.36373 2.90104 6.09285 2.90153 6.83476C2.90023 7.52375 3.06931 8.20238 3.39373 8.81022C3.71814 9.41805 4.18783 9.93624 4.76096 10.3186C4.09482 10.3005 3.4429 10.1218 2.86067 9.79759V9.84867C2.86566 10.814 3.20394 11.748 3.81829 12.4927C4.43264 13.2374 5.28534 13.747 6.23216 13.9353C5.86769 14.0463 5.48928 14.1047 5.10833 14.109C4.84463 14.1059 4.58158 14.082 4.32165 14.0375C4.59128 14.8679 5.11305 15.5936 5.81438 16.1137C6.5157 16.6337 7.36169 16.9222 8.23463 16.939C6.76057 18.0989 4.94066 18.7319 3.065 18.7372C2.72349 18.7383 2.38226 18.7178 2.04333 18.6759C3.95837 19.9123 6.19008 20.5687 8.46961 20.5659C10.0427 20.5823 11.6032 20.285 13.0601 19.6915C14.5169 19.098 15.8409 18.2201 16.9547 17.1091C18.0685 15.9982 18.9498 14.6764 19.5471 13.2211C20.1443 11.7657 20.4456 10.206 20.4333 8.63289C20.4333 8.45921 20.4333 8.27531 20.4333 8.09141C21.235 7.49354 21.9264 6.76061 22.4766 5.92548Z" fill="#008F91"/>
</svg>
