<svg width="43" height="43" viewBox="0 0 43 43" fill="none" xmlns="http://www.w3.org/2000/svg">
<circle cx="21.5" cy="21.5" r="21" fill="#002A2B" stroke="white"/>
<path fill-rule="evenodd" clip-rule="evenodd" d="M17.0439 10.757C18.1964 10.704 18.5639 10.6922 21.4997 10.6922C24.4355 10.6922 24.8029 10.705 25.9545 10.757C27.106 10.8091 27.892 10.9929 28.5798 11.2591C29.3 11.5313 29.9534 11.9567 30.4937 12.5069C31.044 13.0463 31.4684 13.6987 31.7396 14.4199C32.0068 15.1077 32.1896 15.8937 32.2426 17.0433C32.2957 18.1977 32.3075 18.5652 32.3075 21.5C32.3075 24.4358 32.2947 24.8033 32.2426 25.9558C32.1906 27.1053 32.0068 27.8913 31.7396 28.5791C31.4684 29.3004 31.0432 29.9539 30.4937 30.494C29.9534 31.0443 29.3 31.4687 28.5798 31.7399C27.892 32.0071 27.106 32.1899 25.9564 32.2429C24.8029 32.296 24.4355 32.3078 21.4997 32.3078C18.5639 32.3078 18.1964 32.295 17.0439 32.2429C15.8944 32.1909 15.1084 32.0071 14.4206 31.7399C13.6993 31.4687 13.0459 31.0435 12.5056 30.494C11.9558 29.9543 11.5303 29.3011 11.2588 28.5801C10.9925 27.8923 10.8098 27.1063 10.7567 25.9567C10.7037 24.8023 10.6919 24.4348 10.6919 21.5C10.6919 18.5642 10.7047 18.1967 10.7567 17.0452C10.8088 15.8937 10.9925 15.1077 11.2588 14.4199C11.5307 13.6988 11.9565 13.0457 12.5066 12.5059C13.0461 11.9562 13.6989 11.5307 14.4196 11.2591C15.1074 10.9929 15.8934 10.8101 17.0429 10.757H17.0439ZM25.867 12.7024C24.7273 12.6504 24.3854 12.6396 21.4997 12.6396C18.614 12.6396 18.2721 12.6504 17.1324 12.7024C16.0781 12.7506 15.5063 12.9265 15.1251 13.0748C14.621 13.2713 14.2604 13.5042 13.8822 13.8825C13.5236 14.2313 13.2476 14.656 13.0745 15.1254C12.9262 15.5066 12.7503 16.0784 12.7021 17.1327C12.6501 18.2724 12.6393 18.6143 12.6393 21.5C12.6393 24.3857 12.6501 24.7276 12.7021 25.8673C12.7503 26.9216 12.9262 27.4934 13.0745 27.8746C13.2474 28.3433 13.5235 28.7687 13.8822 29.1175C14.231 29.4761 14.6564 29.7522 15.1251 29.9252C15.5063 30.0735 16.0781 30.2494 17.1324 30.2975C18.2721 30.3496 18.613 30.3604 21.4997 30.3604C24.3864 30.3604 24.7273 30.3496 25.867 30.2975C26.9213 30.2494 27.4931 30.0735 27.8743 29.9252C28.3784 29.7287 28.7389 29.4958 29.1172 29.1175C29.4758 28.7687 29.7519 28.3433 29.9249 27.8746C30.0732 27.4934 30.2491 26.9216 30.2972 25.8673C30.3493 24.7276 30.3601 24.3857 30.3601 21.5C30.3601 18.6143 30.3493 18.2724 30.2972 17.1327C30.2491 16.0784 30.0732 15.5066 29.9249 15.1254C29.7284 14.6213 29.4955 14.2607 29.1172 13.8825C28.7684 13.5239 28.3437 13.248 27.8743 13.0748C27.4931 12.9265 26.9213 12.7506 25.867 12.7024ZM20.1192 24.8317C20.8902 25.1527 21.7486 25.196 22.548 24.9543C23.3473 24.7126 24.0379 24.2009 24.5019 23.5066C24.9659 22.8122 25.1744 21.9784 25.0919 21.1474C25.0093 20.3164 24.6408 19.5398 24.0493 18.9503C23.6723 18.5735 23.2164 18.285 22.7144 18.1055C22.2125 17.926 21.677 17.8601 21.1465 17.9124C20.616 17.9647 20.1037 18.134 19.6465 18.4081C19.1892 18.6822 18.7985 19.0542 18.5023 19.4975C18.2061 19.9407 18.0119 20.4441 17.9336 20.9714C17.8553 21.4987 17.8949 22.0367 18.0496 22.5469C18.2042 23.057 18.47 23.5266 18.8279 23.9216C19.1858 24.3167 19.6268 24.6276 20.1192 24.8317ZM17.5715 17.5719C18.0874 17.056 18.6998 16.6468 19.3738 16.3676C20.0478 16.0885 20.7702 15.9448 21.4997 15.9448C22.2292 15.9448 22.9516 16.0885 23.6256 16.3676C24.2996 16.6468 24.912 17.056 25.4278 17.5719C25.9437 18.0877 26.3529 18.7001 26.6321 19.3741C26.9112 20.0481 27.0549 20.7705 27.0549 21.5C27.0549 22.2295 26.9112 22.9519 26.6321 23.6259C26.3529 24.2999 25.9437 24.9123 25.4278 25.4281C24.386 26.4699 22.973 27.0552 21.4997 27.0552C20.0264 27.0552 18.6134 26.4699 17.5715 25.4281C16.5297 24.3863 15.9445 22.9733 15.9445 21.5C15.9445 20.0267 16.5297 18.6137 17.5715 17.5719ZM28.287 16.7721C28.4148 16.6515 28.5172 16.5065 28.5879 16.3456C28.6587 16.1848 28.6965 16.0114 28.6991 15.8357C28.7016 15.6599 28.6689 15.4855 28.6028 15.3227C28.5368 15.1598 28.4387 15.0119 28.3145 14.8876C28.1902 14.7634 28.0423 14.6653 27.8794 14.5992C27.7166 14.5332 27.5421 14.5004 27.3664 14.503C27.1907 14.5056 27.0173 14.5434 26.8565 14.6141C26.6956 14.6849 26.5506 14.7873 26.43 14.9151C26.1955 15.1637 26.0671 15.4939 26.0721 15.8357C26.0771 16.1774 26.215 16.5037 26.4567 16.7454C26.6984 16.9871 27.0247 17.125 27.3664 17.13C27.7082 17.135 28.0384 17.0066 28.287 16.7721Z" fill="white"/>
</svg>
