<svg width="29" height="29" viewBox="0 0 29 29" fill="none" xmlns="http://www.w3.org/2000/svg">
<path d="M7.25 5.4375C6.28859 5.4375 5.36656 5.81942 4.68674 6.49924C4.00692 7.17906 3.625 8.10109 3.625 9.0625V9.42681L14.5 15.283L25.375 9.42863V9.0625C25.375 8.10109 24.9931 7.17906 24.3133 6.49924C23.6334 5.81942 22.7114 5.4375 21.75 5.4375H7.25ZM25.375 11.4858L14.9296 17.11C14.7975 17.1811 14.6499 17.2183 14.5 17.2183C14.3501 17.2183 14.2025 17.1811 14.0704 17.11L3.625 11.4858V19.9375C3.625 20.8989 4.00692 21.8209 4.68674 22.5008C5.36656 23.1806 6.28859 23.5625 7.25 23.5625H21.75C22.7114 23.5625 23.6334 23.1806 24.3133 22.5008C24.9931 21.8209 25.375 20.8989 25.375 19.9375V11.4858Z" fill="#008F91"/>
</svg>
