<svg width="43" height="43" viewBox="0 0 43 43" fill="none" xmlns="http://www.w3.org/2000/svg">
<circle cx="21.5" cy="21.5" r="21" fill="#002A2B" stroke="white"/>
<path d="M32.9391 14.5604C32.1187 14.9239 31.2374 15.1695 30.3109 15.2806C31.2669 14.7085 31.9821 13.8082 32.3231 12.7476C31.4249 13.2811 30.4419 13.6566 29.4168 13.8579C28.7274 13.1218 27.8143 12.634 26.8193 12.47C25.8243 12.3061 24.8029 12.4753 23.9139 12.9512C23.0248 13.4272 22.3178 14.1834 21.9026 15.1024C21.4873 16.0214 21.3871 17.0518 21.6175 18.0336C19.7975 17.9422 18.0171 17.4692 16.3918 16.6452C14.7665 15.8212 13.3327 14.6647 12.1833 13.2507C11.7902 13.9286 11.5643 14.7146 11.5643 15.5517C11.5638 16.3053 11.7494 17.0474 12.1045 17.7121C12.4597 18.3767 12.9734 18.9435 13.6001 19.362C12.8733 19.3389 12.1625 19.1425 11.5269 18.7892V18.8481C11.5269 19.9051 11.8925 20.9295 12.5617 21.7476C13.231 22.5656 14.1626 23.127 15.1986 23.3363C14.5244 23.5188 13.8175 23.5457 13.1314 23.4149C13.4237 24.3244 13.9931 25.1196 14.7598 25.6894C15.5265 26.2592 16.4523 26.5749 17.4074 26.5924C15.786 27.8652 13.7837 28.5556 11.7225 28.5525C11.3573 28.5526 10.9925 28.5313 10.6299 28.4887C12.7222 29.8339 15.1577 30.5479 17.6451 30.5451C26.0654 30.5451 30.6685 23.5711 30.6685 17.5227C30.6685 17.3262 30.6636 17.1277 30.6548 16.9312C31.5501 16.2837 32.323 15.4819 32.9372 14.5633L32.9391 14.5604Z" fill="white"/>
</svg>
