<svg width="43" height="43" viewBox="0 0 43 43" fill="none" xmlns="http://www.w3.org/2000/svg">
<circle cx="21.5" cy="21.5" r="21" fill="#002A2B" stroke="white"/>
<g clip-path="url(#clip0_89_303)">
<path d="M31.4697 16.7379C31.3519 16.3177 31.1224 15.9372 30.8056 15.6369C30.4799 15.3274 30.0807 15.1061 29.6457 14.9937C28.0176 14.5645 21.4948 14.5645 21.4948 14.5645C18.7755 14.5336 16.0568 14.6697 13.3542 14.972C12.9192 15.0927 12.5207 15.319 12.1943 15.6309C11.8735 15.9395 11.6412 16.3201 11.5198 16.7371C11.2282 18.3077 11.0866 19.9026 11.0967 21.5C11.0863 23.0961 11.2276 24.6903 11.5198 26.263C11.6386 26.6782 11.87 27.0571 12.1917 27.3631C12.5133 27.6691 12.9138 27.8902 13.3542 28.0072C15.004 28.4355 21.4948 28.4355 21.4948 28.4355C24.2175 28.4665 26.9396 28.3304 29.6457 28.028C30.0807 27.9157 30.4799 27.6943 30.8056 27.3848C31.1223 27.0846 31.3515 26.704 31.4688 26.2838C31.768 24.7137 31.9135 23.1182 31.9032 21.52C31.9257 19.9149 31.7804 18.3119 31.4697 16.7371V16.7379ZM19.421 24.4684V18.5325L24.8481 21.5009L19.421 24.4684Z" fill="white"/>
</g>
<defs>
<clipPath id="clip0_89_303">
<rect width="20.8065" height="20.8065" fill="white" transform="translate(11.0967 11.0968)"/>
</clipPath>
</defs>
</svg>
