<svg width="163" height="127" viewBox="0 0 163 127" fill="none" xmlns="http://www.w3.org/2000/svg">
<g clip-path="url(#clip0_2_571)">
<path d="M157.318 73.8729C157.318 73.8729 167.235 82.5579 160.867 102.184C154.992 120.293 135.119 129.917 117.362 123.054C117.162 122.976 116.962 122.898 116.76 122.817L125.452 118.798H137.863L143.981 109.563L151.517 105.985L156.152 88.2361L155.978 75.5451L157.318 73.8729Z" fill="url(#paint0_linear_2_571)"/>
<path d="M13.6996 64.5547C13.6996 64.5547 2.58222 103.486 34.1562 120.73L30.9521 123.13L18.7825 116.934L4.5217 101.61V83.0224C4.5217 82.501 4.34728 73.2852 4.5217 72.5894C4.69612 71.8936 6.26022 67.5444 6.26022 67.5444L9.25571 64.5528L11.3033 63.5953L13.7015 64.5528L13.6996 64.5547Z" fill="url(#paint1_linear_2_571)"/>
<path d="M60.7193 108.736C49.1886 103.454 41.5596 94.7579 37.6067 82.6413H19.503V52.5992H30.9484C31.064 52.04 31.1664 51.5603 31.2612 51.0787C32.3665 45.4177 34.7629 40.3026 37.948 35.5496C43.1483 27.7898 49.8768 21.7362 58.3116 17.6392C63.6409 15.0514 69.2622 13.5214 75.164 12.9545C82.4139 12.2587 89.5462 12.9659 96.5154 14.9566C101.234 16.3045 105.583 18.5815 109.728 21.2149C116.835 25.729 122.58 31.5626 126.713 38.9243C129.09 43.1578 130.836 47.6339 131.71 52.4267C131.733 52.5462 131.794 52.6599 131.874 52.8741H139.779V82.6584H121.029C120.502 84.0424 120.053 85.3145 119.535 86.5582C118.212 89.7452 116.644 92.7975 114.322 95.3968C113.65 96.1476 112.856 96.7997 112.247 97.596C108.59 102.385 108.266 111.917 117.262 115.963C122.326 118.24 127.488 118.153 132.552 116.232C144.341 111.762 151.693 103.359 153.833 90.86C155.077 83.5968 153.67 76.6636 149.566 70.4357C147.937 67.9653 145.731 66.096 142.9 65.0533C142.727 64.9888 142.568 64.8864 142.373 64.784V58.6679C143.198 59.0149 143.931 59.2784 144.623 59.6235C153.89 64.2361 158.858 71.7628 160.033 81.9967C160.545 86.4464 160.587 90.8258 159.216 95.101C155.576 106.45 148.593 115.036 137.83 120.358C134.365 122.072 130.586 122.671 126.757 122.953C123.522 123.192 120.339 122.957 117.215 122.032C111.279 120.274 107.297 116.413 105.178 110.67C104.385 108.524 103.989 106.236 103.335 104.034C101.924 99.2871 98.4454 96.8661 93.5218 96.5703C89.3262 96.3201 85.3089 97.2623 81.3655 98.5705C74.4076 100.88 67.9825 104.292 61.7716 108.137C61.4777 108.319 61.1725 108.48 60.7175 108.738L60.7193 108.736ZM53.1358 52.8021C59.2652 41.8363 68.4754 35.8245 80.9275 35.7259C93.5218 35.6254 102.396 42.1984 108.685 52.84H112.5C112.321 52.2978 112.209 51.8466 112.026 51.4257C110.071 46.9609 107.254 43.118 103.545 39.9613C98.1459 35.3657 91.789 32.9162 84.8349 31.9816C77.9358 31.0526 71.395 32.3778 65.1879 35.4567C59.2178 38.4181 54.5577 42.752 51.4788 48.6975C50.8248 49.9602 50.3224 51.3025 49.6664 52.8002H53.1339L53.1358 52.8021Z" fill="black"/>
<path d="M99.4635 105.652C97.6093 105.576 95.8481 105.411 94.0944 105.451C86.2322 105.633 78.9406 107.894 72.1268 111.734C67.1255 114.551 62.2076 117.514 57.2044 120.328C51.513 123.528 45.4992 125.742 38.9073 126.256C29.2061 127.011 20.7732 124.121 13.694 117.506C5.98913 110.31 1.67601 101.289 0.346997 90.9187C-0.966846 80.6639 1.43334 71.2566 7.76367 62.9848C10.0084 60.0519 12.8162 57.7029 15.9956 55.8089C16.1245 55.7331 16.2705 55.6876 16.5018 55.589V61.8056C14.8751 63.4455 13.2655 64.8731 11.8872 66.4979C8.61492 70.3617 6.86313 74.9573 6.23559 79.9074C5.02223 89.4854 6.85365 98.4965 11.9839 106.725C15.2979 112.039 19.9674 115.827 25.6778 118.403C29.189 119.988 32.8405 120.807 36.6663 120.898C39.5746 120.966 42.3578 120.24 45.0916 119.34C51.8296 117.12 57.8869 113.55 63.8892 109.868C70.9533 105.536 78.4401 102.186 86.5355 100.305C89.131 99.7023 91.7681 99.4558 94.4186 99.9715C97.124 100.499 98.6957 102.23 99.4445 104.802C99.4882 104.952 99.5109 105.111 99.5166 105.267C99.5223 105.386 99.4863 105.507 99.4654 105.652H99.4635Z" fill="black"/>
<path d="M78.7776 116.784C80.4895 116.788 81.8603 118.149 81.8394 119.821C81.8185 121.461 80.4611 122.802 78.8098 122.817C77.0807 122.832 75.7404 121.516 75.7404 119.802C75.7404 118.043 77.0106 116.78 78.7776 116.784Z" fill="black"/>
<path d="M113.745 11.8284C113.732 13.1346 112.767 14.0333 111.406 14.0049C110.118 13.9783 109.195 13.0474 109.197 11.7791C109.199 10.5316 110.27 9.46801 111.495 9.49645C112.746 9.52489 113.756 10.5733 113.743 11.8284H113.745Z" fill="black"/>
<path d="M122.618 104.122C123.681 104.108 124.531 104.958 124.521 106.025C124.512 107.06 123.712 107.843 122.656 107.851C121.571 107.858 120.788 107.117 120.767 106.063C120.745 104.963 121.535 104.133 122.618 104.122Z" fill="black"/>
<path d="M99.2682 116.97C99.236 117.952 98.3241 118.82 97.3477 118.799C96.3049 118.777 95.4063 117.844 95.4594 116.837C95.5106 115.846 96.4016 115.049 97.4311 115.072C98.4359 115.095 99.3004 115.988 99.2682 116.97Z" fill="black"/>
<path d="M33.722 101.611C33.7144 102.601 32.8329 103.468 31.8337 103.466C30.8346 103.464 29.9265 102.601 29.9132 101.642C29.8999 100.605 30.7872 99.7421 31.8546 99.7573C32.8916 99.7725 33.7296 100.605 33.7201 101.611H33.722Z" fill="black"/>
<path d="M135.394 38.0256C135.406 39.0551 134.577 39.8874 133.54 39.8855C132.531 39.8855 131.648 39.021 131.646 38.0351C131.646 37.0436 132.514 36.1809 133.523 36.1715C134.537 36.162 135.383 37 135.392 38.0256H135.394Z" fill="black"/>
<path d="M29.0487 37.3564C29.0278 38.3707 28.1576 39.1783 27.1357 39.1347C26.093 39.0911 25.3271 38.2721 25.3517 37.2275C25.3745 36.2454 26.1859 35.4378 27.1585 35.4302C28.1936 35.4226 29.0714 36.3174 29.0487 37.3564Z" fill="black"/>
<path d="M41.0022 21.3495C39.9443 21.3419 39.1424 20.5475 39.148 19.5124C39.1537 18.5284 39.9652 17.6923 40.9302 17.6772C41.9691 17.6601 42.8583 18.5531 42.8412 19.5958C42.8241 20.5854 42.0165 21.3571 41.0041 21.3476L41.0022 21.3495Z" fill="black"/>
<path d="M49.8389 10.1771C50.9119 10.1884 51.7006 10.9847 51.6703 12.0256C51.64 13.0285 50.8456 13.7754 49.8218 13.7679C48.7601 13.7584 47.9676 12.9488 47.998 11.9061C48.0264 10.8937 48.8018 10.1657 49.8389 10.1771Z" fill="black"/>
<path d="M131.923 91.8704C131.957 91.1102 132.338 90.6741 133.083 90.6533C133.841 90.6324 134.283 91.1102 134.296 91.8079C134.31 92.5037 133.866 93.0193 133.13 93.0231C132.42 93.0269 131.98 92.6041 131.923 91.8704Z" fill="black"/>
<path d="M130.23 98.1723C130.108 98.8264 129.714 99.2359 128.942 99.1696C128.214 99.107 127.888 98.633 127.873 97.9638C127.86 97.3325 128.516 96.777 129.14 96.8168C129.807 96.8585 130.298 97.4348 130.23 98.1742V98.1723Z" fill="black"/>
<path d="M140.208 44.2213C140.185 44.8773 139.605 45.4309 138.958 45.3608C138.272 45.2849 137.872 44.8906 137.861 44.1777C137.851 43.5199 138.433 42.9909 139.093 43.0345C139.721 43.0762 140.229 43.6147 140.208 44.2195V44.2213Z" fill="black"/>
<path d="M27.2495 92.151C27.2267 92.8658 26.6371 93.4781 26.0342 93.3909C25.3403 93.2905 24.8872 92.9075 24.9213 92.1321C24.9574 91.3396 25.4389 91.0249 26.1612 91.0495C26.8836 91.0742 27.1964 91.5368 27.2495 92.1529V92.151Z" fill="black"/>
<path d="M39.8419 108.475C39.8173 109.144 39.2751 109.622 38.5831 109.559C37.874 109.495 37.51 109.068 37.5214 108.378C37.5328 107.659 37.9783 107.305 38.6703 107.286C39.3471 107.267 39.8685 107.817 39.8438 108.475H39.8419Z" fill="black"/>
<path d="M88.8049 118.288C88.1603 118.219 87.6996 117.916 87.656 117.188C87.6143 116.507 88.1281 115.967 88.7992 115.958C89.4438 115.95 90.0581 116.532 89.9955 117.15C89.9273 117.825 89.5443 118.235 88.8049 118.288Z" fill="black"/>
<path d="M90.405 5.82793C89.6865 5.81655 89.1518 5.24779 89.203 4.57854C89.2542 3.90551 89.6599 3.57183 90.3197 3.55098C91.006 3.53012 91.5823 4.07045 91.516 4.71315C91.4477 5.39946 91.0268 5.76915 90.4031 5.82793H90.405Z" fill="black"/>
<path d="M33.1248 28.7358C32.3209 28.7169 31.864 28.3206 31.8394 27.5945C31.8147 26.9063 32.2167 26.4797 32.9409 26.4684C33.6803 26.457 34.1429 26.7982 34.1562 27.5774C34.1675 28.296 33.7618 28.6581 33.1248 28.7358Z" fill="black"/>
<path d="M121.116 20.1456C121.075 20.8224 120.752 21.2585 120.022 21.3021C119.353 21.3419 118.745 20.794 118.788 20.1494C118.836 19.4536 119.27 19.0194 119.948 19.0138C120.627 19.0062 121.052 19.4119 121.114 20.1456H121.116Z" fill="black"/>
<path d="M69.0688 119.327C68.4545 119.262 68.0412 118.908 68.0109 118.199C67.9825 117.518 68.5095 116.983 69.1863 117.025C69.8689 117.067 70.2897 117.448 70.3314 118.145C70.3713 118.801 69.8177 119.327 69.0688 119.325V119.327Z" fill="black"/>
<path d="M126.484 25.1583C127.236 25.1356 127.763 25.619 127.758 26.292C127.75 27.0049 127.363 27.4182 126.667 27.4447C125.922 27.4732 125.473 27.0466 125.454 26.3072C125.435 25.6114 125.829 25.2076 126.485 25.1583H126.484Z" fill="black"/>
<path d="M59.3714 9.5628C58.668 9.55901 58.1011 8.99783 58.1391 8.35892C58.1827 7.63659 58.6604 7.27827 59.3164 7.28965C59.9856 7.30102 60.4369 7.71432 60.4312 8.42528C60.4255 9.12296 60.0084 9.49645 59.3714 9.5628Z" fill="black"/>
<path d="M102.18 8.22811C102.112 8.8765 101.754 9.28411 101.045 9.30686C100.362 9.32961 99.8484 8.79687 99.8958 8.11625C99.947 7.4053 100.387 7.05267 101.064 7.02992C101.657 7.00906 102.186 7.59299 102.178 8.22621L102.18 8.22811Z" fill="black"/>
<path d="M23.4577 45.8272C22.7278 45.7987 22.2046 45.2394 22.2652 44.5854C22.3316 43.8782 22.7487 43.5218 23.452 43.5237C24.1308 43.5256 24.6597 44.0848 24.5877 44.7465C24.5118 45.4404 24.0891 45.7949 23.4577 45.8272Z" fill="black"/>
<path d="M67.7587 7.56834C66.9985 7.48682 66.5435 7.13798 66.5511 6.42323C66.5567 5.72176 66.97 5.29898 67.6867 5.31415C68.3825 5.33121 68.8147 5.71986 68.8072 6.4403C68.8015 7.14746 68.4014 7.52664 67.7587 7.56834Z" fill="black"/>
<path d="M43.9199 52.5253C43.9351 52.4874 43.9503 52.4476 43.9654 52.4078C45.9827 46.5457 49.1943 41.4249 53.6742 37.1459C62.5375 28.6808 73.1942 25.2171 85.3051 26.3432C92.826 27.0428 99.5943 29.9094 105.587 34.5012C111.701 39.184 116.466 44.8622 118.409 52.5234H125.295C125.263 52.184 125.238 51.8599 125.166 51.5451C123.008 42.2857 118.128 34.7382 110.653 28.9121C103.487 23.3269 95.2395 20.2859 86.2909 19.0858C81.2498 18.409 76.2181 18.6498 71.2339 19.6451C62.2341 21.4405 54.5786 25.7081 48.2463 32.3304C43.5844 37.2066 40.0012 42.7615 37.9157 49.2132C37.5801 50.254 37.3905 51.3442 37.127 52.5253H43.9256H43.9199Z" fill="url(#paint2_linear_2_571)"/>
<path d="M35.0738 86.5771C35.0738 86.5771 37.6826 99.6777 57.0414 110.922L52.6941 114.052C52.6941 114.052 36.4351 106.4 29.6819 87.0416L35.0719 86.5771H35.0738Z" fill="url(#paint3_linear_2_571)"/>
<path d="M127.739 84.5486C127.739 84.5486 125.886 90.2324 119.203 97.9164C117.417 99.9696 116.236 102.495 115.897 105.195C115.569 107.794 115.952 110.909 118.348 113.762C118.348 113.762 107.802 111.809 113.146 100.053C113.624 99.0008 114.2 97.996 114.839 97.0329C116.631 94.3332 121.484 86.8691 122.261 84.1144L127.739 84.5486Z" fill="url(#paint4_linear_2_571)"/>
<path d="M148.855 85.8169L151.517 83.6366C151.517 83.6366 150.37 68.8071 140.919 67.2714L148.857 85.815L148.855 85.8169Z" fill="url(#paint5_linear_2_571)"/>
<path d="M79.5625 5.98339C81.2147 5.98339 82.5542 4.64396 82.5542 2.9917C82.5542 1.33943 81.2147 0 79.5625 0C77.9102 0 76.5708 1.33943 76.5708 2.9917C76.5708 4.64396 77.9102 5.98339 79.5625 5.98339Z" fill="black"/>
<path d="M60.1638 79.9056H61.7203C62.0805 80.7189 62.454 81.555 62.8218 82.3949C63.1726 83.1968 63.5195 83.9988 63.984 85.068C64.786 83.193 65.4685 81.5967 66.1775 79.9359H67.7492C68.1644 82.8233 68.5758 85.6785 69.0024 88.6513C68.3407 88.746 67.8345 88.8181 67.171 88.9129C66.8847 87.144 66.6117 85.4491 66.3387 83.7542L66.1169 83.7296C65.4362 85.36 64.7537 86.9905 63.9745 88.8579C63.1896 87.0189 62.4901 85.3809 61.7905 83.7447C61.7203 83.7599 61.6502 83.7751 61.58 83.7921C61.3184 85.4415 61.0568 87.089 60.7743 88.8674C60.1752 88.8067 59.6405 88.7517 58.9315 88.6797C59.3486 85.7145 59.7486 82.8574 60.1638 79.9037V79.9056Z" fill="white"/>
<path d="M95.7039 79.7197C98.3961 79.7273 100.341 81.6782 100.332 84.3571C100.32 87.034 98.2672 89.0228 95.5523 88.983C92.8829 88.9451 90.9263 86.9658 90.9301 84.3059C90.9339 81.5986 92.898 79.7103 95.7039 79.7197ZM95.6243 87.2957C97.2131 87.29 98.4909 85.9761 98.4757 84.3628C98.4605 82.7209 97.1884 81.4033 95.6262 81.4109C94.0507 81.4204 92.7824 82.7342 92.7767 84.3628C92.7691 85.9799 94.0545 87.3014 95.6262 87.2957H95.6243Z" fill="white"/>
<path d="M76.6333 79.7179C79.3216 79.733 81.2782 81.7028 81.2497 84.3685C81.2213 87.0132 79.2439 88.9603 76.5556 88.9906C73.8767 89.0209 71.8367 86.9867 71.8462 84.2945C71.8557 81.5891 73.8293 79.7027 76.6333 79.7179ZM76.5612 87.2957C78.1443 87.2881 79.4089 85.9686 79.3899 84.3438C79.3709 82.7058 78.0798 81.3862 76.5233 81.4147C74.927 81.4431 73.6909 82.7399 73.6947 84.3836C73.6985 86.0065 74.9744 87.3052 76.5631 87.2976L76.5612 87.2957Z" fill="white"/>
<path d="M25.1166 74.0625C24.4265 74.0625 23.7288 73.6776 23.7288 72.8188V61.8265C23.7288 60.924 24.4265 60.5221 25.1166 60.5221C25.8067 60.5221 26.5252 60.9297 26.5252 61.8265V72.8188C26.5252 73.634 25.8162 74.0625 25.1166 74.0625Z" fill="url(#paint6_linear_2_571)"/>
<path d="M25.1166 60.7117C25.7157 60.7117 26.3357 61.0624 26.3357 61.8265V72.8188C26.3357 73.5222 25.7157 73.8729 25.1166 73.8729C24.5175 73.8729 23.9184 73.543 23.9184 72.8188V61.8265C23.9184 61.0624 24.4967 60.7117 25.1166 60.7117Z" fill="url(#paint7_linear_2_571)"/>
<path d="M38.5679 74.0625C38.0446 74.0625 37.4853 73.7914 37.1782 73.3894L31.2403 65.7434L31.2782 66.2761V72.7771C31.2782 73.6605 30.5483 74.0625 29.8696 74.0625C29.0013 74.0625 28.4401 73.5582 28.4401 72.7771V61.9706C28.4401 60.9752 29.1909 60.5202 29.8904 60.5202C30.4402 60.5202 30.8535 60.7326 31.2365 61.2103L37.3507 69.154L37.3052 68.3862V61.7222C37.3052 60.9411 38.0522 60.5202 38.7556 60.5202C39.4589 60.5202 40.1434 60.8918 40.1434 61.7222V72.6311C40.1434 73.5695 39.3509 74.0606 38.5698 74.0606L38.5679 74.0625Z" fill="url(#paint8_linear_2_571)"/>
<path d="M38.7537 60.7117C39.3736 60.7117 39.9519 61.0207 39.9519 61.7241V72.633C39.9519 73.4596 39.2485 73.8729 38.5679 73.8729C38.092 73.8729 37.5972 73.6245 37.328 73.2738L31.0052 65.1329L31.0887 66.2894V72.7771C31.0887 73.5411 30.4687 73.8729 29.8696 73.8729C29.2288 73.8729 28.6297 73.543 28.6297 72.7771V61.9706C28.6297 61.144 29.2288 60.7098 29.8905 60.7098C30.4061 60.7098 30.7588 60.9165 31.0887 61.3298L37.5763 69.7588L37.4929 68.3748V61.7222C37.4929 61.0605 38.1337 60.7098 38.7537 60.7098V60.7117Z" fill="url(#paint9_linear_2_571)"/>
<path d="M52.8438 74.0625C52.3205 74.0625 51.7612 73.7914 51.4541 73.3894L45.5162 65.7434L45.5541 66.2761V72.7771C45.5541 73.6605 44.8242 74.0625 44.1455 74.0625C43.2772 74.0625 42.716 73.5582 42.716 72.7771V61.9706C42.716 60.9752 43.4668 60.5202 44.1664 60.5202C44.7162 60.5202 45.1295 60.7326 45.5124 61.2103L51.6266 69.154L51.5811 68.3862V61.7222C51.5811 60.9411 52.3281 60.5202 53.0315 60.5202C53.7348 60.5202 54.4193 60.8918 54.4193 61.7222V72.6311C54.4193 73.5695 53.6268 74.0606 52.8457 74.0606L52.8438 74.0625Z" fill="url(#paint10_linear_2_571)"/>
<path d="M53.0296 60.7117C53.6495 60.7117 54.2278 61.0207 54.2278 61.7241V72.633C54.2278 73.4596 53.5244 73.8729 52.8438 73.8729C52.3679 73.8729 51.8731 73.6245 51.6039 73.2738L45.2811 65.1329L45.3646 66.2894V72.7771C45.3646 73.5411 44.7446 73.8729 44.1455 73.8729C43.5047 73.8729 42.9056 73.543 42.9056 72.7771V61.9706C42.9056 61.144 43.5047 60.7098 44.1664 60.7098C44.682 60.7098 45.0347 60.9165 45.3646 61.3298L51.8523 69.7588L51.7688 68.3748V61.7222C51.7688 61.0605 52.4096 60.7098 53.0296 60.7098V60.7117Z" fill="url(#paint11_linear_2_571)"/>
<path d="M63.3185 74.2691C59.1514 74.2691 56.3512 71.4689 56.3512 67.3018C56.3512 63.1346 59.1514 60.3155 63.3185 60.3155C67.4857 60.3155 70.2233 63.1233 70.2233 67.3018C70.2233 71.4803 67.4478 74.2691 63.3185 74.2691ZM63.3185 62.8029C60.8368 62.8029 59.1685 64.6115 59.1685 67.3037C59.1685 69.9958 60.8349 71.7836 63.3185 71.7836C65.8021 71.7836 67.4269 69.9826 67.4269 67.3037C67.4269 64.6248 65.7756 62.8029 63.3185 62.8029Z" fill="url(#paint12_linear_2_571)"/>
<path d="M63.3185 74.0795C59.2689 74.0795 56.5408 71.3722 56.5408 67.3018C56.5408 63.2313 59.267 60.5051 63.3185 60.5051C67.37 60.5051 70.0337 63.2313 70.0337 67.3018C70.0337 71.3722 67.3473 74.0795 63.3185 74.0795ZM67.6165 67.3018C67.6165 64.4921 65.9026 62.6114 63.3185 62.6114C60.7345 62.6114 58.9789 64.4921 58.9789 67.3018C58.9789 70.1115 60.7136 71.9713 63.3185 71.9713C65.9235 71.9713 67.6165 70.0906 67.6165 67.3018Z" fill="url(#paint13_linear_2_571)"/>
<path d="M77.7405 74.0625C77.1622 74.0625 76.694 73.7743 76.4532 73.2719L70.794 62.327C70.6177 61.9156 70.6461 61.508 70.8698 61.1686C71.1296 60.7762 71.6206 60.5202 72.1192 60.5202C72.724 60.5202 73.1202 60.7572 73.3648 61.2691L77.7386 69.6584L82.0347 61.307C82.2925 60.816 82.7494 60.5221 83.2575 60.5221C83.7656 60.5221 84.2794 60.7913 84.5239 61.1933C84.7458 61.5554 84.7439 61.9952 84.522 62.4313L78.9842 73.3193C78.7169 73.7819 78.2429 74.0625 77.7405 74.0625Z" fill="url(#paint14_linear_2_571)"/>
<path d="M72.1211 60.7117C72.6178 60.7117 72.9686 60.8766 73.1961 61.3525L77.7405 70.0717L82.2034 61.3942C82.4309 60.9601 82.8233 60.7117 83.2575 60.7117C84.0007 60.7117 84.8481 61.3734 84.3533 62.3441L78.8154 73.2321C78.5879 73.6245 78.1746 73.8729 77.7405 73.8729C77.3063 73.8729 76.8513 73.6662 76.6257 73.1904L70.9646 62.2398C70.593 61.3715 71.3779 60.7117 72.1211 60.7117Z" fill="url(#paint15_linear_2_571)"/>
<path d="M96.2518 74.2691C95.8271 74.2691 95.2849 74.053 95.0309 73.5696L93.6355 70.7997H87.2161L85.8226 73.5677C85.6141 74.0075 85.1628 74.271 84.6206 74.271C84.1201 74.271 83.612 74.0018 83.3542 73.6018C83.1456 73.2757 83.1229 72.8984 83.2916 72.5363L89.184 60.9999C89.4551 60.4008 89.9423 60.3174 90.4277 60.3174C90.9889 60.3174 91.4344 60.5657 91.6505 60.9999L97.4974 72.4662C97.7287 72.8567 97.7534 73.2643 97.56 73.6018C97.3325 74.0018 96.8073 74.271 96.2556 74.271L96.2518 74.2691ZM92.4316 68.4147L90.4258 64.4201L88.42 68.4147H92.4335H92.4316Z" fill="url(#paint16_linear_2_571)"/>
<path d="M91.4799 61.0833L97.3268 72.5496C97.8633 73.4577 97.0367 74.0776 96.2518 74.0776C95.8594 74.0776 95.4044 73.871 95.1977 73.4785L93.7512 70.6063H87.0985L85.652 73.4785C85.4453 73.9127 85.0112 74.0776 84.6187 74.0776C83.8964 74.0776 83.0906 73.416 83.4622 72.6102L89.3508 61.0814C89.5575 60.6264 89.8874 60.5032 90.4258 60.5032C90.86 60.5032 91.2733 60.6681 91.4799 61.0814V61.0833ZM88.1128 68.6042H92.7407L90.4258 63.9973L88.1109 68.6042H88.1128Z" fill="url(#paint17_linear_2_571)"/>
<path d="M101.996 74.0625C101.306 74.0625 100.609 73.6207 100.609 72.7771V63.0285H96.9761C96.0509 63.0285 95.63 62.3839 95.63 61.7848C95.63 61.1553 96.0471 60.5202 96.9761 60.5202H107.038C107.953 60.5202 108.446 61.1705 108.446 61.7848C108.446 62.399 107.953 63.0285 107.038 63.0285H103.384L103.405 72.7771C103.405 73.5809 102.688 74.0625 101.996 74.0625Z" fill="url(#paint18_linear_2_571)"/>
<path d="M108.257 61.7867C108.257 62.3023 107.822 62.8408 107.037 62.8408H103.195L103.215 72.779C103.215 73.5222 102.533 73.8748 101.996 73.8748C101.418 73.8748 100.798 73.5241 100.798 72.779V62.8408H96.9761C96.1703 62.8408 95.8196 62.3042 95.8196 61.7867C95.8196 61.2691 96.1703 60.7117 96.9761 60.7117H107.037C107.822 60.7117 108.257 61.2482 108.257 61.7867Z" fill="url(#paint19_linear_2_571)"/>
<path d="M110.632 74.0625C109.942 74.0625 109.244 73.6776 109.244 72.8188V61.8265C109.244 60.924 109.942 60.5221 110.632 60.5221C111.322 60.5221 112.041 60.9297 112.041 61.8265V72.8188C112.041 73.634 111.332 74.0625 110.632 74.0625Z" fill="url(#paint20_linear_2_571)"/>
<path d="M110.632 60.7117C111.231 60.7117 111.851 61.0624 111.851 61.8265V72.8188C111.851 73.5222 111.231 73.8729 110.632 73.8729C110.033 73.8729 109.434 73.543 109.434 72.8188V61.8265C109.434 61.0624 110.012 60.7117 110.632 60.7117Z" fill="url(#paint21_linear_2_571)"/>
<path d="M119.744 74.0625C119.165 74.0625 118.697 73.7743 118.456 73.2719L112.797 62.327C112.621 61.9156 112.649 61.508 112.873 61.1686C113.133 60.7762 113.624 60.5202 114.122 60.5202C114.727 60.5202 115.123 60.7572 115.368 61.2691L119.742 69.6584L124.038 61.307C124.296 60.816 124.753 60.5221 125.261 60.5221C125.769 60.5221 126.283 60.7913 126.527 61.1933C126.749 61.5554 126.747 61.9952 126.525 62.4313L120.987 73.3193C120.72 73.7819 120.246 74.0625 119.744 74.0625Z" fill="url(#paint22_linear_2_571)"/>
<path d="M114.122 60.7117C114.619 60.7117 114.97 60.8766 115.197 61.3525L119.742 70.0717L124.205 61.3942C124.432 60.9601 124.825 60.7117 125.259 60.7117C126.002 60.7117 126.849 61.3734 126.355 62.3441L120.817 73.2321C120.589 73.6245 120.176 73.8729 119.742 73.8729C119.308 73.8729 118.853 73.6662 118.627 73.1904L112.966 62.2398C112.594 61.3715 113.379 60.7117 114.122 60.7117Z" fill="url(#paint23_linear_2_571)"/>
<path d="M129.743 74.0625C128.842 74.0625 128.19 73.4615 128.19 72.633V61.9307C128.19 61.1269 128.857 60.5221 129.743 60.5221H137.944C138.831 60.5221 139.229 61.1155 139.229 61.7032C139.229 62.291 138.748 62.9261 137.944 62.9261H130.924V66.1623H137.572C138.403 66.1623 138.837 66.7766 138.837 67.3852C138.837 67.9938 138.403 68.5663 137.572 68.5663H130.924V71.6168H137.944C138.774 71.6168 139.269 72.2595 139.269 72.8813C139.269 73.4501 138.854 74.0625 137.944 74.0625H129.743Z" fill="url(#paint24_linear_2_571)"/>
<path d="M139.082 72.8813C139.082 73.3781 138.71 73.8729 137.946 73.8729H129.744C128.918 73.8729 128.381 73.3155 128.381 72.633V61.9308C128.381 61.2691 128.918 60.7117 129.744 60.7117H137.946C138.689 60.7117 139.042 61.1876 139.042 61.7032C139.042 62.2189 138.649 62.7365 137.946 62.7365H130.736V66.3519H137.574C138.278 66.3519 138.649 66.8676 138.649 67.3852C138.649 67.9028 138.299 68.3767 137.574 68.3767H130.736V71.8064H137.946C138.668 71.8064 139.082 72.3638 139.082 72.8813Z" fill="url(#paint25_linear_2_571)"/>
<path d="M87.1895 80.0212V79.8392L85.3012 80.1369C85.3012 81.8526 85.2993 83.466 85.3012 85.0794C85.305 87.1156 85.1704 87.2692 83.1797 87.4265V88.7422C84.9657 89.6504 86.9374 88.7366 87.0834 86.8369C87.2464 84.7078 87.1895 80.0212 87.1895 80.0212Z" fill="white"/>
</g>
<defs>
<linearGradient id="paint0_linear_2_571" x1="116.76" y1="99.5753" x2="163" y2="99.5753" gradientUnits="userSpaceOnUse">
<stop stop-color="#BA7802"/>
<stop offset="0.18" stop-color="#D19A2C"/>
<stop offset="0.39" stop-color="#EBC15C"/>
<stop offset="0.5" stop-color="#F5D06F"/>
<stop offset="0.61" stop-color="#EBC15C"/>
<stop offset="0.82" stop-color="#D19A2C"/>
<stop offset="1" stop-color="#BA7802"/>
</linearGradient>
<linearGradient id="paint1_linear_2_571" x1="4.44397" y1="93.3625" x2="34.1562" y2="93.3625" gradientUnits="userSpaceOnUse">
<stop stop-color="#BA7802"/>
<stop offset="0.18" stop-color="#D19A2C"/>
<stop offset="0.39" stop-color="#EBC15C"/>
<stop offset="0.5" stop-color="#F5D06F"/>
<stop offset="0.61" stop-color="#EBC15C"/>
<stop offset="0.82" stop-color="#D19A2C"/>
<stop offset="1" stop-color="#BA7802"/>
</linearGradient>
<linearGradient id="paint2_linear_2_571" x1="81.2062" y1="1.03516" x2="81.2062" y2="64.6968" gradientUnits="userSpaceOnUse">
<stop stop-color="#BA7802"/>
<stop offset="0.18" stop-color="#D19A2C"/>
<stop offset="0.39" stop-color="#EBC15C"/>
<stop offset="0.5" stop-color="#F5D06F"/>
<stop offset="0.61" stop-color="#EBC15C"/>
<stop offset="0.82" stop-color="#D19A2C"/>
<stop offset="1" stop-color="#BA7802"/>
</linearGradient>
<linearGradient id="paint3_linear_2_571" x1="29.6819" y1="100.315" x2="57.0414" y2="100.315" gradientUnits="userSpaceOnUse">
<stop stop-color="#BA7802"/>
<stop offset="0.18" stop-color="#D19A2C"/>
<stop offset="0.39" stop-color="#EBC15C"/>
<stop offset="0.5" stop-color="#F5D06F"/>
<stop offset="0.61" stop-color="#EBC15C"/>
<stop offset="0.82" stop-color="#D19A2C"/>
<stop offset="1" stop-color="#BA7802"/>
</linearGradient>
<linearGradient id="paint4_linear_2_571" x1="111.635" y1="98.9383" x2="127.739" y2="98.9383" gradientUnits="userSpaceOnUse">
<stop stop-color="#BA7802"/>
<stop offset="0.18" stop-color="#D19A2C"/>
<stop offset="0.39" stop-color="#EBC15C"/>
<stop offset="0.5" stop-color="#F5D06F"/>
<stop offset="0.61" stop-color="#EBC15C"/>
<stop offset="0.82" stop-color="#D19A2C"/>
<stop offset="1" stop-color="#BA7802"/>
</linearGradient>
<linearGradient id="paint5_linear_2_571" x1="140.917" y1="76.5442" x2="151.517" y2="76.5442" gradientUnits="userSpaceOnUse">
<stop stop-color="#BA7802"/>
<stop offset="0.18" stop-color="#D19A2C"/>
<stop offset="0.39" stop-color="#EBC15C"/>
<stop offset="0.5" stop-color="#F5D06F"/>
<stop offset="0.61" stop-color="#EBC15C"/>
<stop offset="0.82" stop-color="#D19A2C"/>
<stop offset="1" stop-color="#BA7802"/>
</linearGradient>
<linearGradient id="paint6_linear_2_571" x1="25.128" y1="29.8866" x2="25.128" y2="92.2022" gradientUnits="userSpaceOnUse">
<stop stop-color="#BA7802"/>
<stop offset="0.18" stop-color="#D19A2C"/>
<stop offset="0.39" stop-color="#EBC15C"/>
<stop offset="0.5" stop-color="#F5D06F"/>
<stop offset="0.61" stop-color="#EBC15C"/>
<stop offset="0.82" stop-color="#D19A2C"/>
<stop offset="1" stop-color="#BA7802"/>
</linearGradient>
<linearGradient id="paint7_linear_2_571" x1="25.128" y1="29.8866" x2="25.128" y2="92.2022" gradientUnits="userSpaceOnUse">
<stop stop-color="#BA7802"/>
<stop offset="0.18" stop-color="#D19A2C"/>
<stop offset="0.39" stop-color="#EBC15C"/>
<stop offset="0.5" stop-color="#F5D06F"/>
<stop offset="0.61" stop-color="#EBC15C"/>
<stop offset="0.82" stop-color="#D19A2C"/>
<stop offset="1" stop-color="#BA7802"/>
</linearGradient>
<linearGradient id="paint8_linear_2_571" x1="34.2908" y1="29.8866" x2="34.2908" y2="92.2022" gradientUnits="userSpaceOnUse">
<stop stop-color="#BA7802"/>
<stop offset="0.18" stop-color="#D19A2C"/>
<stop offset="0.39" stop-color="#EBC15C"/>
<stop offset="0.5" stop-color="#F5D06F"/>
<stop offset="0.61" stop-color="#EBC15C"/>
<stop offset="0.82" stop-color="#D19A2C"/>
<stop offset="1" stop-color="#BA7802"/>
</linearGradient>
<linearGradient id="paint9_linear_2_571" x1="34.2908" y1="29.8866" x2="34.2908" y2="92.2022" gradientUnits="userSpaceOnUse">
<stop stop-color="#BA7802"/>
<stop offset="0.18" stop-color="#D19A2C"/>
<stop offset="0.39" stop-color="#EBC15C"/>
<stop offset="0.5" stop-color="#F5D06F"/>
<stop offset="0.61" stop-color="#EBC15C"/>
<stop offset="0.82" stop-color="#D19A2C"/>
<stop offset="1" stop-color="#BA7802"/>
</linearGradient>
<linearGradient id="paint10_linear_2_571" x1="48.5667" y1="29.8866" x2="48.5667" y2="92.2022" gradientUnits="userSpaceOnUse">
<stop stop-color="#BA7802"/>
<stop offset="0.18" stop-color="#D19A2C"/>
<stop offset="0.39" stop-color="#EBC15C"/>
<stop offset="0.5" stop-color="#F5D06F"/>
<stop offset="0.61" stop-color="#EBC15C"/>
<stop offset="0.82" stop-color="#D19A2C"/>
<stop offset="1" stop-color="#BA7802"/>
</linearGradient>
<linearGradient id="paint11_linear_2_571" x1="48.5667" y1="29.8866" x2="48.5667" y2="92.2022" gradientUnits="userSpaceOnUse">
<stop stop-color="#BA7802"/>
<stop offset="0.18" stop-color="#D19A2C"/>
<stop offset="0.39" stop-color="#EBC15C"/>
<stop offset="0.5" stop-color="#F5D06F"/>
<stop offset="0.61" stop-color="#EBC15C"/>
<stop offset="0.82" stop-color="#D19A2C"/>
<stop offset="1" stop-color="#BA7802"/>
</linearGradient>
<linearGradient id="paint12_linear_2_571" x1="63.2882" y1="29.8866" x2="63.2882" y2="92.2022" gradientUnits="userSpaceOnUse">
<stop stop-color="#BA7802"/>
<stop offset="0.18" stop-color="#D19A2C"/>
<stop offset="0.39" stop-color="#EBC15C"/>
<stop offset="0.5" stop-color="#F5D06F"/>
<stop offset="0.61" stop-color="#EBC15C"/>
<stop offset="0.82" stop-color="#D19A2C"/>
<stop offset="1" stop-color="#BA7802"/>
</linearGradient>
<linearGradient id="paint13_linear_2_571" x1="63.2882" y1="29.8866" x2="63.2882" y2="92.2022" gradientUnits="userSpaceOnUse">
<stop stop-color="#BA7802"/>
<stop offset="0.18" stop-color="#D19A2C"/>
<stop offset="0.39" stop-color="#EBC15C"/>
<stop offset="0.5" stop-color="#F5D06F"/>
<stop offset="0.61" stop-color="#EBC15C"/>
<stop offset="0.82" stop-color="#D19A2C"/>
<stop offset="1" stop-color="#BA7802"/>
</linearGradient>
<linearGradient id="paint14_linear_2_571" x1="77.6836" y1="29.8866" x2="77.6836" y2="92.2022" gradientUnits="userSpaceOnUse">
<stop stop-color="#BA7802"/>
<stop offset="0.18" stop-color="#D19A2C"/>
<stop offset="0.39" stop-color="#EBC15C"/>
<stop offset="0.5" stop-color="#F5D06F"/>
<stop offset="0.61" stop-color="#EBC15C"/>
<stop offset="0.82" stop-color="#D19A2C"/>
<stop offset="1" stop-color="#BA7802"/>
</linearGradient>
<linearGradient id="paint15_linear_2_571" x1="77.6836" y1="29.8866" x2="77.6836" y2="92.2022" gradientUnits="userSpaceOnUse">
<stop stop-color="#BA7802"/>
<stop offset="0.18" stop-color="#D19A2C"/>
<stop offset="0.39" stop-color="#EBC15C"/>
<stop offset="0.5" stop-color="#F5D06F"/>
<stop offset="0.61" stop-color="#EBC15C"/>
<stop offset="0.82" stop-color="#D19A2C"/>
<stop offset="1" stop-color="#BA7802"/>
</linearGradient>
<linearGradient id="paint16_linear_2_571" x1="90.4334" y1="29.8866" x2="90.4334" y2="92.2022" gradientUnits="userSpaceOnUse">
<stop stop-color="#BA7802"/>
<stop offset="0.18" stop-color="#D19A2C"/>
<stop offset="0.39" stop-color="#EBC15C"/>
<stop offset="0.5" stop-color="#F5D06F"/>
<stop offset="0.61" stop-color="#EBC15C"/>
<stop offset="0.82" stop-color="#D19A2C"/>
<stop offset="1" stop-color="#BA7802"/>
</linearGradient>
<linearGradient id="paint17_linear_2_571" x1="90.4334" y1="29.8866" x2="90.4334" y2="92.2022" gradientUnits="userSpaceOnUse">
<stop stop-color="#BA7802"/>
<stop offset="0.18" stop-color="#D19A2C"/>
<stop offset="0.39" stop-color="#EBC15C"/>
<stop offset="0.5" stop-color="#F5D06F"/>
<stop offset="0.61" stop-color="#EBC15C"/>
<stop offset="0.82" stop-color="#D19A2C"/>
<stop offset="1" stop-color="#BA7802"/>
</linearGradient>
<linearGradient id="paint18_linear_2_571" x1="102.038" y1="29.8866" x2="102.038" y2="92.2022" gradientUnits="userSpaceOnUse">
<stop stop-color="#BA7802"/>
<stop offset="0.18" stop-color="#D19A2C"/>
<stop offset="0.39" stop-color="#EBC15C"/>
<stop offset="0.5" stop-color="#F5D06F"/>
<stop offset="0.61" stop-color="#EBC15C"/>
<stop offset="0.82" stop-color="#D19A2C"/>
<stop offset="1" stop-color="#BA7802"/>
</linearGradient>
<linearGradient id="paint19_linear_2_571" x1="102.038" y1="29.8866" x2="102.038" y2="92.2022" gradientUnits="userSpaceOnUse">
<stop stop-color="#BA7802"/>
<stop offset="0.18" stop-color="#D19A2C"/>
<stop offset="0.39" stop-color="#EBC15C"/>
<stop offset="0.5" stop-color="#F5D06F"/>
<stop offset="0.61" stop-color="#EBC15C"/>
<stop offset="0.82" stop-color="#D19A2C"/>
<stop offset="1" stop-color="#BA7802"/>
</linearGradient>
<linearGradient id="paint20_linear_2_571" x1="110.642" y1="29.8866" x2="110.642" y2="92.2022" gradientUnits="userSpaceOnUse">
<stop stop-color="#BA7802"/>
<stop offset="0.18" stop-color="#D19A2C"/>
<stop offset="0.39" stop-color="#EBC15C"/>
<stop offset="0.5" stop-color="#F5D06F"/>
<stop offset="0.61" stop-color="#EBC15C"/>
<stop offset="0.82" stop-color="#D19A2C"/>
<stop offset="1" stop-color="#BA7802"/>
</linearGradient>
<linearGradient id="paint21_linear_2_571" x1="110.642" y1="29.8866" x2="110.642" y2="92.2022" gradientUnits="userSpaceOnUse">
<stop stop-color="#BA7802"/>
<stop offset="0.18" stop-color="#D19A2C"/>
<stop offset="0.39" stop-color="#EBC15C"/>
<stop offset="0.5" stop-color="#F5D06F"/>
<stop offset="0.61" stop-color="#EBC15C"/>
<stop offset="0.82" stop-color="#D19A2C"/>
<stop offset="1" stop-color="#BA7802"/>
</linearGradient>
<linearGradient id="paint22_linear_2_571" x1="119.687" y1="29.8866" x2="119.687" y2="92.2022" gradientUnits="userSpaceOnUse">
<stop stop-color="#BA7802"/>
<stop offset="0.18" stop-color="#D19A2C"/>
<stop offset="0.39" stop-color="#EBC15C"/>
<stop offset="0.5" stop-color="#F5D06F"/>
<stop offset="0.61" stop-color="#EBC15C"/>
<stop offset="0.82" stop-color="#D19A2C"/>
<stop offset="1" stop-color="#BA7802"/>
</linearGradient>
<linearGradient id="paint23_linear_2_571" x1="119.687" y1="29.8866" x2="119.687" y2="92.2022" gradientUnits="userSpaceOnUse">
<stop stop-color="#BA7802"/>
<stop offset="0.18" stop-color="#D19A2C"/>
<stop offset="0.39" stop-color="#EBC15C"/>
<stop offset="0.5" stop-color="#F5D06F"/>
<stop offset="0.61" stop-color="#EBC15C"/>
<stop offset="0.82" stop-color="#D19A2C"/>
<stop offset="1" stop-color="#BA7802"/>
</linearGradient>
<linearGradient id="paint24_linear_2_571" x1="133.73" y1="29.8866" x2="133.73" y2="92.2022" gradientUnits="userSpaceOnUse">
<stop stop-color="#BA7802"/>
<stop offset="0.18" stop-color="#D19A2C"/>
<stop offset="0.39" stop-color="#EBC15C"/>
<stop offset="0.5" stop-color="#F5D06F"/>
<stop offset="0.61" stop-color="#EBC15C"/>
<stop offset="0.82" stop-color="#D19A2C"/>
<stop offset="1" stop-color="#BA7802"/>
</linearGradient>
<linearGradient id="paint25_linear_2_571" x1="133.73" y1="29.8866" x2="133.73" y2="92.2022" gradientUnits="userSpaceOnUse">
<stop stop-color="#BA7802"/>
<stop offset="0.18" stop-color="#D19A2C"/>
<stop offset="0.39" stop-color="#EBC15C"/>
<stop offset="0.5" stop-color="#F5D06F"/>
<stop offset="0.61" stop-color="#EBC15C"/>
<stop offset="0.82" stop-color="#D19A2C"/>
<stop offset="1" stop-color="#BA7802"/>
</linearGradient>
<clipPath id="clip0_2_571">
<rect width="163" height="126.372" fill="white"/>
</clipPath>
</defs>
</svg>
