<svg width="39" height="39" viewBox="0 0 39 39" fill="none" xmlns="http://www.w3.org/2000/svg">
<path d="M28.4375 30.875H35.75M35.75 30.875L31.6875 26.8125M35.75 30.875L31.6875 34.9375M19.5 3.25L15.4375 7.3125L19.5 11.375" stroke="#008F91" stroke-width="2.4375" stroke-linecap="round" stroke-linejoin="round"/>
<path d="M17.0625 7.3125C20.2948 7.3125 23.3948 8.59654 25.6804 10.8821C27.966 13.1677 29.25 16.2677 29.25 19.5C29.25 22.7323 27.966 25.8323 25.6804 28.1179C23.3948 30.4035 20.2948 31.6875 17.0625 31.6875H3.25" stroke="#008F91" stroke-width="2.4375" stroke-linecap="round" stroke-linejoin="round"/>
<path d="M10.9785 8.9375C9.1228 10.0066 7.58159 11.5458 6.51008 13.4001C5.43858 15.2544 4.87461 17.3584 4.875 19.5C4.875 22.243 5.78175 24.7748 7.3125 26.8125" stroke="#008F91" stroke-width="2.4375" stroke-linecap="round" stroke-linejoin="round"/>
</svg>
