<svg width="40" height="39" viewBox="0 0 40 39" fill="none" xmlns="http://www.w3.org/2000/svg">
<path d="M34.625 17.875V14.625H31.375V11.375C31.3724 10.5138 31.0292 9.68868 30.4203 9.07974C29.8113 8.47081 28.9862 8.12757 28.125 8.125H24.875V4.875H21.625V8.125H18.375V4.875H15.125V8.125H11.875C11.0138 8.12757 10.1887 8.47081 9.57974 9.07974C8.97081 9.68868 8.62757 10.5138 8.625 11.375V14.625H5.375V17.875H8.625V21.125H5.375V24.375H8.625V27.625C8.62757 28.4862 8.97081 29.3113 9.57974 29.9203C10.1887 30.5292 11.0138 30.8724 11.875 30.875H15.125V34.125H18.375V30.875H21.625V34.125H24.875V30.875H28.125C28.9862 30.8724 29.8113 30.5292 30.4203 29.9203C31.0292 29.3113 31.3724 28.4862 31.375 27.625V24.375H34.625V21.125H31.375V17.875H34.625ZM28.125 27.625H11.875V11.375H28.125V27.625Z" fill="#008F91"/>
<path d="M18.9616 13H16.776L13.5098 26H15.1786L15.9326 22.9531H19.6961L20.4306 26H22.1564L18.9616 13ZM16.152 21.6515L17.8063 14.5437H17.881L19.4784 21.6515H16.152ZM23.6465 13H25.2715V26H23.6465V13Z" fill="#008F91"/>
</svg>
