<svg width="39" height="39" viewBox="0 0 39 39" fill="none" xmlns="http://www.w3.org/2000/svg">
<path d="M19.5 30.875C19.5 31.4275 19.5487 31.9638 19.63 32.5H10.5625C8.125 32.5 5.99625 31.6875 4.24125 29.9487C2.5025 28.2425 1.625 26.1462 1.625 23.6925C1.625 21.58 2.25875 19.695 3.52625 18.0375C5.4275 15.5513 6.5 15.3237 8.53125 14.8687C9.21375 12.3825 10.5625 10.3675 12.5938 8.82375C14.625 7.28 16.9325 6.5 19.5 6.5C22.6688 6.5 25.35 7.605 27.56 9.815C29.77 12.025 30.875 14.7063 30.875 17.875C32.7437 18.0863 34.2875 18.8988 35.5225 20.3125C35.62 20.3938 35.685 20.5237 35.75 20.6212C34.2875 19.9062 32.63 19.5 30.875 19.5C29.7537 19.5 28.6488 19.6788 27.625 19.9712V17.875C27.625 15.6325 26.8125 13.715 25.2525 12.1225C23.66 10.5625 21.7425 9.75 19.5 9.75C17.2575 9.75 15.34 10.5625 13.7475 12.1225C12.1875 13.715 11.375 15.6325 11.375 17.875H10.5625C8.98625 17.875 7.65375 18.4275 6.54875 19.5487C5.4275 20.6537 4.875 21.9862 4.875 23.5625C4.875 25.1388 5.4275 26.4713 6.54875 27.625C7.65375 28.6975 8.98625 29.25 10.5625 29.25H19.63C19.5487 29.7862 19.5 30.3225 19.5 30.875ZM38.7238 33.54L37.0988 36.3513C36.985 36.5625 36.7738 36.5625 36.5625 36.5625L34.5638 35.75C34.125 36.0425 33.6862 36.3025 33.1987 36.5137L32.89 38.6588C32.8575 38.8538 32.6787 39 32.5 39H29.25C29.0225 39 28.86 38.8538 28.8275 38.6588L28.5187 36.5137C28.015 36.3187 27.56 36.0425 27.1375 35.75L25.1225 36.5625C24.9275 36.5625 24.7162 36.5625 24.6187 36.3513L22.9937 33.54C22.9484 33.4552 22.9333 33.3574 22.951 33.2628C22.9688 33.1683 23.0182 33.0826 23.0912 33.02L24.8138 31.6875C24.749 31.1478 24.749 30.6022 24.8138 30.0625L23.0912 28.73C23.0156 28.6693 22.9641 28.5834 22.9462 28.488C22.9284 28.3927 22.9452 28.294 22.9937 28.21L24.6187 25.3988C24.7325 25.1875 24.9438 25.1875 25.1225 25.1875L27.1375 26C27.56 25.7075 28.0312 25.4475 28.5187 25.2362L28.8275 23.0912C28.8466 22.9938 28.8994 22.9062 28.9767 22.8437C29.0539 22.7813 29.1507 22.7481 29.25 22.75H32.5C32.6787 22.75 32.8575 22.8962 32.8737 23.0912L33.1825 25.2362C33.6862 25.4312 34.125 25.7075 34.5638 26L36.5625 25.1875C36.7738 25.1875 36.985 25.1875 37.0825 25.3988L38.7075 28.21C38.805 28.3888 38.7562 28.6 38.61 28.73L36.8875 30.0625C36.9363 30.3388 36.9525 30.5987 36.9525 30.875C36.9525 31.1513 36.92 31.4112 36.8875 31.6875L38.6263 33.02C38.7725 33.15 38.8213 33.3612 38.7238 33.54ZM33.3125 30.875C33.3125 29.5263 32.2075 28.4375 30.875 28.4375C29.5425 28.4375 28.4375 29.5263 28.4375 30.875C28.4375 32.2237 29.51 33.3125 30.875 33.3125C32.24 33.3125 33.3125 32.2237 33.3125 30.875Z" fill="#008F91"/>
</svg>
