<svg width="39" height="39" viewBox="0 0 39 39" fill="none" xmlns="http://www.w3.org/2000/svg">
<path d="M19.4968 3.25C14.8656 3.25 11.8642 6.53088 8.31358 7.72688C6.87058 8.21438 6.14745 8.4565 5.85658 8.79937C5.56408 9.14062 5.47795 9.64275 5.30733 10.6438C3.47595 21.3623 7.47833 31.2715 17.022 35.1293C18.0473 35.5436 18.5608 35.75 19.5017 35.75C20.4426 35.75 20.9577 35.542 21.9831 35.1276C31.5267 31.2715 35.5242 21.3623 33.6928 10.6438C33.5206 9.64275 33.4361 9.14063 33.1436 8.79775C32.8511 8.45488 32.1296 8.21275 30.6866 7.72688C27.1343 6.53088 24.1281 3.25 19.4968 3.25Z" stroke="#008F91" stroke-width="2.4375" stroke-linecap="round" stroke-linejoin="round"/>
<path d="M16.9813 10.5641V13.78M11.3149 16.2516H14.6494M24.3523 16.2516H27.6868M24.3523 21.0844H27.6868M11.3149 21.0844H14.6494M16.9813 23.595V26.8125M21.8969 23.595V26.8125M21.8807 10.5641V13.78M16.2744 23.5121H22.7273C23.1583 23.5121 23.5716 23.3409 23.8764 23.0362C24.1811 22.7314 24.3523 22.3181 24.3523 21.8871V15.405C24.3523 14.974 24.1811 14.5607 23.8764 14.256C23.5716 13.9512 23.1583 13.78 22.7273 13.78H16.2744C15.8435 13.78 15.4301 13.9512 15.1254 14.256C14.8206 14.5607 14.6494 14.974 14.6494 15.405V21.8871C14.6494 22.3181 14.8206 22.7314 15.1254 23.0362C15.4301 23.3409 15.8435 23.5121 16.2744 23.5121Z" stroke="#008F91" stroke-width="2.4375" stroke-linecap="round" stroke-linejoin="round"/>
</svg>
