<svg width="39" height="39" viewBox="0 0 39 39" fill="none" xmlns="http://www.w3.org/2000/svg">
<path d="M17.875 34.125V30.875H30.875V19.3375C30.875 16.1687 29.7716 13.481 27.5649 11.2743C25.3581 9.0675 22.6698 7.96358 19.5 7.9625C16.3302 7.96142 13.6424 9.06533 11.4368 11.2743C9.23108 13.4832 8.12717 16.1709 8.125 19.3375V29.25H6.5C5.60625 29.25 4.84142 28.932 4.2055 28.2961C3.56958 27.6602 3.25108 26.8948 3.25 26V22.75C3.25 22.1812 3.39246 21.6466 3.67738 21.1461C3.96229 20.6456 4.3615 20.2459 4.875 19.9469L4.99688 17.7937C5.21354 15.9521 5.74871 14.2458 6.60238 12.675C7.45604 11.1042 8.52583 9.73646 9.81175 8.57188C11.0977 7.40729 12.5732 6.5 14.2383 5.85C15.9033 5.2 17.6573 4.875 19.5 4.875C21.3428 4.875 23.0896 5.2 24.7406 5.85C26.3916 6.5 27.8677 7.40079 29.1688 8.55238C30.4698 9.70396 31.5396 11.0646 32.3781 12.6344C33.2166 14.2041 33.7583 15.9104 34.0031 17.7531L34.125 19.8656C34.6396 20.1094 35.0393 20.475 35.3243 20.9625C35.6092 21.45 35.7511 21.9646 35.75 22.5063V26.2437C35.75 26.7854 35.6081 27.3 35.3243 27.7875C35.0404 28.275 34.6407 28.6406 34.125 28.8844V30.875C34.125 31.7687 33.807 32.5341 33.1711 33.1711C32.5352 33.8081 31.7698 34.1261 30.875 34.125H17.875ZM14.625 22.75C14.1646 22.75 13.7789 22.594 13.468 22.282C13.1571 21.97 13.0011 21.5843 13 21.125C12.9989 20.6657 13.1549 20.28 13.468 19.968C13.7811 19.656 14.1668 19.5 14.625 19.5C15.0833 19.5 15.4695 19.656 15.7836 19.968C16.0978 20.28 16.2533 20.6657 16.25 21.125C16.2468 21.5843 16.0908 21.9705 15.782 22.2836C15.4733 22.5967 15.0876 22.7522 14.625 22.75ZM24.375 22.75C23.9146 22.75 23.5289 22.594 23.218 22.282C22.9071 21.97 22.7511 21.5843 22.75 21.125C22.7489 20.6657 22.9049 20.28 23.218 19.968C23.5311 19.656 23.9168 19.5 24.375 19.5C24.8333 19.5 25.2195 19.656 25.5336 19.968C25.8478 20.28 26.0033 20.6657 26 21.125C25.9968 21.5843 25.8408 21.9705 25.532 22.2836C25.2233 22.5967 24.8376 22.7522 24.375 22.75ZM9.79063 20.2312C9.60104 17.3604 10.4677 14.8958 12.3906 12.8375C14.3135 10.7792 16.7104 9.75 19.5813 9.75C21.9917 9.75 24.1112 10.5148 25.9399 12.0445C27.7685 13.5742 28.8719 15.5317 29.25 17.9172C26.7854 17.8891 24.5175 17.225 22.4461 15.925C20.3748 14.625 18.7834 12.8646 17.6719 10.6438C17.2385 12.8104 16.3248 14.7404 14.9305 16.4336C13.5363 18.1269 11.823 19.3927 9.79063 20.2312Z" fill="#008F91"/>
</svg>
