<svg width="40" height="39" viewBox="0 0 40 39" fill="none" xmlns="http://www.w3.org/2000/svg">
<g clip-path="url(#clip0_65_682)">
<path d="M6.3501 11.7C6.3501 10.1485 6.96644 8.66049 8.06352 7.5634C9.16061 6.46631 10.6486 5.84998 12.2001 5.84998H27.8001C29.3516 5.84998 30.8396 6.46631 31.9367 7.5634C33.0338 8.66049 33.6501 10.1485 33.6501 11.7V15.6585C33.0024 15.5834 32.3484 15.5808 31.7001 15.6507V13.65H8.3001V27.3C8.3001 28.3343 8.71099 29.3263 9.44238 30.0577C10.1738 30.7891 11.1658 31.2 12.2001 31.2H19.0095C18.5811 31.7782 18.2861 32.4442 18.1456 33.15H12.2001C10.6486 33.15 9.16061 32.5336 8.06352 31.4366C6.96644 30.3395 6.3501 28.8515 6.3501 27.3V11.7ZM25.9359 18.6946L23.1279 15.8866C22.9451 15.7035 22.697 15.6006 22.4383 15.6004C22.1796 15.6002 21.9314 15.7028 21.7483 15.8856C21.5652 16.0685 21.4622 16.3165 21.4621 16.5753C21.4619 16.834 21.5645 17.0822 21.7473 17.2653L24.8244 20.3404C25.126 19.7593 25.4965 19.2107 25.9359 18.6946ZM12.2001 7.79998C11.1658 7.79998 10.1738 8.21087 9.44238 8.94226C8.71099 9.67365 8.3001 10.6656 8.3001 11.7H31.7001C31.7001 10.6656 31.2892 9.67365 30.5578 8.94226C29.8264 8.21087 28.8344 7.79998 27.8001 7.79998H12.2001ZM18.2529 17.2653C18.436 17.0822 18.5388 16.8339 18.5388 16.575C18.5388 16.3161 18.436 16.0678 18.2529 15.8847C18.0698 15.7016 17.8215 15.5987 17.5626 15.5987C17.3037 15.5987 17.0554 15.7016 16.8723 15.8847L11.9973 20.7597C11.9065 20.8502 11.8345 20.9578 11.7853 21.0763C11.7362 21.1947 11.7109 21.3217 11.7109 21.45C11.7109 21.5782 11.7362 21.7052 11.7853 21.8237C11.8345 21.9421 11.9065 22.0497 11.9973 22.1403L16.8723 27.0153C17.0554 27.1984 17.3037 27.3012 17.5626 27.3012C17.8215 27.3012 18.0698 27.1984 18.2529 27.0153C18.436 26.8322 18.5388 26.5839 18.5388 26.325C18.5388 26.0661 18.436 25.8178 18.2529 25.6347L14.0662 21.45L18.2529 17.2653ZM33.4395 17.5968C34.1532 17.6787 34.3579 18.5328 33.849 19.0437L31.9478 20.9449C31.6748 21.2179 31.4582 21.542 31.3105 21.8986C31.1628 22.2553 31.0867 22.6376 31.0867 23.0236C31.0867 23.4097 31.1628 23.7919 31.3105 24.1486C31.4582 24.5053 31.6748 24.8293 31.9478 25.1023C32.2207 25.3753 32.5448 25.5918 32.9015 25.7396C33.2581 25.8873 33.6404 25.9634 34.0264 25.9634C34.4125 25.9634 34.7948 25.8873 35.1514 25.7396C35.5081 25.5918 35.8322 25.3753 36.1052 25.1023L38.0064 23.2011C38.5153 22.6921 39.3714 22.8969 39.4533 23.6106C39.5891 24.7695 39.4271 25.9438 38.9826 27.0227C38.538 28.1015 37.8257 29.0491 36.9128 29.7759C36 30.5026 34.9169 30.9846 33.7659 31.1761C32.6149 31.3676 31.4341 31.2624 30.3351 30.8704L25.0194 36.1881C24.7464 36.4611 24.4223 36.6776 24.0657 36.8253C23.709 36.9731 23.3267 37.0491 22.9407 37.0491C22.5546 37.0491 22.1724 36.9731 21.8157 36.8253C21.459 36.6776 21.135 36.4611 20.862 36.1881C20.589 35.9151 20.3725 35.591 20.2247 35.2344C20.077 34.8777 20.001 34.4954 20.001 34.1094C20.001 33.7233 20.077 33.3411 20.2247 32.9844C20.3725 32.6277 20.589 32.3037 20.862 32.0307L26.1777 26.715C25.7856 25.6158 25.6804 24.4348 25.872 23.2836C26.0636 22.1324 26.5457 21.0492 27.2727 20.1363C27.9998 19.2234 28.9477 18.5111 30.0267 18.0667C31.1058 17.6223 32.2805 17.4606 33.4395 17.5968Z" fill="#008F91"/>
</g>
<defs>
<clipPath id="clip0_65_682">
<rect width="39" height="39" fill="white" transform="translate(0.5)"/>
</clipPath>
</defs>
</svg>
