<svg width="40" height="39" viewBox="0 0 40 39" fill="none" xmlns="http://www.w3.org/2000/svg">
<path d="M19.9998 8.77499C17.4942 8.77514 15.0448 9.5179 12.9612 10.9094C10.8775 12.301 9.25303 14.2789 8.29294 16.5932C7.33285 18.9076 7.08024 21.4546 7.56701 23.9124C8.05378 26.3703 9.2581 28.6287 11.0278 30.4024C11.3019 30.6771 11.4557 31.0493 11.4553 31.4373C11.455 31.8253 11.3005 32.1973 11.0259 32.4714C10.7513 32.7455 10.379 32.8993 9.99099 32.8989C9.60299 32.8985 9.23102 32.7441 8.95692 32.4694C7.18647 30.6951 5.86964 28.5203 5.11794 26.1291C4.36623 23.7379 4.20179 21.2008 4.63853 18.7326C5.07528 16.2644 6.10034 13.9377 7.62693 11.9497C9.15353 9.96163 11.1367 8.37071 13.4085 7.31163C15.6803 6.25255 18.1739 5.75649 20.6781 5.86546C23.1823 5.97443 25.6233 6.68521 27.7946 7.93763C29.9658 9.19005 31.8033 10.9472 33.1514 13.0604C34.4995 15.1735 35.3186 17.5804 35.5393 20.0772C34.7254 18.8979 33.507 18.0583 32.1151 17.7177C31.3171 15.1277 29.7099 12.8617 27.5294 11.2522C25.3489 9.6427 22.7099 8.7745 19.9998 8.77499ZM29.0419 17.7957C28.1916 15.7 26.6395 13.965 24.6512 12.8874C22.6628 11.8098 20.3618 11.4567 18.1418 11.8884C15.9218 12.3201 13.9208 13.5098 12.4812 15.254C11.0416 16.9982 10.2528 19.1884 10.2498 21.45C10.2498 24.1351 11.3379 26.5707 13.0929 28.3335C13.367 28.6084 13.739 28.7631 14.1272 28.7637C14.5154 28.7642 14.8879 28.6105 15.1628 28.3364C15.4377 28.0623 15.5924 27.6902 15.593 27.3021C15.5935 26.9139 15.4398 26.5414 15.1657 26.2665C14.4376 25.5354 13.8847 24.6487 13.5487 23.6731C13.2126 22.6975 13.1021 21.6585 13.2255 20.634C13.349 19.6096 13.703 18.6265 14.2612 17.7586C14.8193 16.8908 15.567 16.1608 16.4479 15.6235C17.3288 15.0862 18.3201 14.7557 19.3472 14.6568C20.3743 14.5578 21.4104 14.6931 22.3777 15.0523C23.345 15.4116 24.2182 15.9855 24.9317 16.7308C25.6453 17.4762 26.1805 18.3737 26.4972 19.3557C27.1963 18.6244 28.0731 18.0869 29.0419 17.7957ZM16.0998 21.45C16.0998 20.4157 16.5107 19.4237 17.2421 18.6923C17.9734 17.9609 18.9654 17.55 19.9998 17.55C21.0341 17.55 22.0261 17.9609 22.7575 18.6923C23.4889 19.4237 23.8998 20.4157 23.8998 21.45C23.8998 22.4843 23.4889 23.4763 22.7575 24.2077C22.0261 24.9391 21.0341 25.35 19.9998 25.35C18.9654 25.35 17.9734 24.9391 17.2421 24.2077C16.5107 23.4763 16.0998 22.4843 16.0998 21.45ZM34.6248 23.4C34.6248 24.4343 34.2139 25.4263 33.4825 26.1577C32.7511 26.8891 31.7591 27.3 30.7248 27.3C29.6904 27.3 28.6984 26.8891 27.9671 26.1577C27.2357 25.4263 26.8248 24.4343 26.8248 23.4C26.8248 22.3657 27.2357 21.3737 27.9671 20.6423C28.6984 19.9109 29.6904 19.5 30.7248 19.5C31.7591 19.5 32.7511 19.9109 33.4825 20.6423C34.2139 21.3737 34.6248 22.3657 34.6248 23.4ZM37.5498 32.175C37.5498 34.6027 35.5998 37.05 30.7248 37.05C25.8498 37.05 23.8998 34.6125 23.8998 32.175C23.8998 31.3992 24.2079 30.6553 24.7565 30.1067C25.305 29.5582 26.049 29.25 26.8248 29.25H34.6248C35.4005 29.25 36.1445 29.5582 36.6931 30.1067C37.2416 30.6553 37.5498 31.3992 37.5498 32.175Z" fill="#008F91"/>
</svg>
